<?xml version="1.0" encoding="UTF-8"?>
<svg width="207px" height="57px" viewBox="0 0 207 57" version="1.1" xmlns="http://www.w3.org/2000/svg" xmlns:xlink="http://www.w3.org/1999/xlink">
    <title>Artboard</title>
    <defs>
        <polygon id="path-1" points="0 56.2853239 206.379521 56.2853239 206.379521 0 0 0"></polygon>
    </defs>
    <g id="Artboard" stroke="none" stroke-width="1" fill="none" fill-rule="evenodd">
        <g id="Logo">
            <path d="M28.1426619,0 C12.6247043,0 0,12.6245628 0,28.1423465 C0,43.6607611 12.6247043,56.2853239 28.1426619,56.2853239 L46.8037048,56.2853239 L46.8037048,37.5790668 L37.5107212,37.5790668 L37.5107212,46.9924445 L28.1426619,46.9924445 C17.7487784,46.9924445 9.29298356,38.5361135 9.29298356,28.1423465 C9.29298356,17.7485795 17.7487784,9.29287939 28.1426619,9.29287939 C38.5365455,9.29287939 46.9923403,17.7485795 46.9923403,28.1423465 L46.9923403,37.4819111 L56.2853239,37.4819111 L56.2853239,28.1423465 C56.2853239,12.6245628 43.6606196,0 28.1426619,0" id="Fill-1" fill="#00EE81"></path>
            <mask id="mask-2" fill="white">
                <use xlink:href="#path-1"></use>
            </mask>
            <g id="Clip-4"></g>
            <polygon id="Fill-3" fill="#FFFFFF" mask="url(#mask-2)" points="200.750989 40.3378155 207.31761 40.3378155 207.31761 15.9475084 200.750989 15.9475084"></polygon>
            <path d="M141.865509,15.9475084 C138.621362,15.9475084 135.699802,17.3508691 133.677959,19.5810304 C131.655486,17.3508691 128.733927,15.9475084 125.490409,15.9475084 L114.446825,15.9475084 L114.446825,40.3378155 L120.158263,40.3378155 L120.158263,21.6470891 L125.490409,21.6470891 C128.430241,21.6470891 130.821925,24.0338082 130.821925,26.967536 L130.821925,40.3378155 L136.533993,40.3378155 L136.533993,26.967536 C136.533993,24.0338082 138.925048,21.6470891 141.865509,21.6470891 C144.805341,21.6470891 147.197025,24.0338082 147.197025,26.967536 L147.197025,40.3378155 L152.908463,40.3378155 L152.908463,26.967536 C152.908463,20.8913366 147.95498,15.9475084 141.865509,15.9475084" id="Fill-5" fill="#FFFFFF" mask="url(#mask-2)"></path>
            <path d="M185.95523,15.9475084 C182.711766,15.9475084 179.790254,17.3508691 177.767815,19.5804017 C175.745375,17.3508691 172.824493,15.9475084 169.580399,15.9475084 L158.536996,15.9475084 L158.536996,40.3378155 L164.24834,40.3378155 L164.24834,21.6470891 L169.580399,21.6470891 C172.520182,21.6470891 174.911827,24.0338082 174.911827,26.967536 L174.911827,40.3378155 L180.623802,40.3378155 L180.623802,26.967536 C180.623802,24.0338082 183.015447,21.6470891 185.95523,21.6470891 C188.895644,21.6470891 191.287289,24.0338082 191.287289,26.967536 L191.287289,40.3378155 L196.998634,40.3378155 L196.998634,26.967536 C196.998634,20.8913366 192.044601,15.9475084 185.95523,15.9475084" id="Fill-6" fill="#FFFFFF" mask="url(#mask-2)"></path>
            <polygon id="Fill-7" fill="#FFFFFF" mask="url(#mask-2)" points="102.251672 40.3378155 108.818293 40.3378155 108.818293 15.9475084 102.251672 15.9475084"></polygon>
            <path d="M84.4283092,34.5768096 C80.4630809,34.5768096 77.2364419,31.3221374 77.2364419,27.3216573 C77.2364419,23.3211771 80.4630809,20.0658524 84.4283092,20.0658524 C88.3935375,20.0658524 91.6195298,23.3211771 91.6195298,27.3216573 C91.6195298,31.3221374 88.3935375,34.5768096 84.4283092,34.5768096 L84.4283092,34.5768096 Z M91.6195298,16.2428524 C89.5518679,14.871949 87.0819272,14.071331 84.4283092,14.071331 C77.1859953,14.071331 71.2947436,20.0156099 71.2947436,27.3216573 C71.2947436,34.6277046 77.1859953,40.571331 84.4283092,40.571331 C87.0819272,40.571331 89.5518679,39.770713 91.6195298,38.3998096 L91.6195298,38.8330699 C91.6195298,43.0821527 88.1936915,46.5384475 83.982698,46.5384475 C81.9428464,46.5384475 80.0252307,45.737177 78.5829768,44.2814485 L76.8503317,42.5333998 L72.6490395,46.7726951 L74.3810377,48.5200913 C76.9454041,51.107908 80.3557203,52.532969 83.982698,52.532969 C91.4701304,52.532969 97.5612281,46.3877199 97.5612281,38.8330699 L97.5612281,15.3600193 L91.6195298,15.3600193 L91.6195298,16.2428524 Z" id="Fill-8" fill="#FFFFFF" mask="url(#mask-2)"></path>
        </g>
    </g>
</svg>